# xmcd CD database file
#
# Track frame offsets:
#	150
#	26026
#	61625
#	86704
#	114759
#	142299
#	169859
#	196594
#	227200
#
# Disc length: 3503 seconds
#
# Revision: 0
# Processed by: cddbd v1.5.2PL0 Copyright (c) Steve Scherf et al.
# Submitted via: CDex 2.08
#
DISCID=710dad09
DTITLE=Larry Vuckovich - City Sounds, Village Voices
DYEAR=1982
DGENRE=Jazz
TTITLE0=Dr. Herb's Herbs
TTITLE1=Besame Mucho
TTITLE2=Soultrane
TTITLE3=Bouncing With Bud
TTITLE4=Village Voices
TTITLE5=no title
TTITLE6=Serenade In Blue
TTITLE7=Kiss And Run
TTITLE8=You've Changed
EXTD=YEAR: 1982
EXTT0=
EXTT1=
EXTT2=
EXTT3=
EXTT4=
EXTT5=
EXTT6=
EXTT7=
EXTT8=
PLAYORDER=
